<?xml version="1.0" encoding="utf-8"?>
<!-- Generator: Adobe Illustrator 19.0.0, SVG Export Plug-In . SVG Version: 6.00 Build 0)  -->
<svg version="1.1" id="Capa_1" xmlns="http://www.w3.org/2000/svg" xmlns:xlink="http://www.w3.org/1999/xlink" x="0px" y="0px"
	 viewBox="0 0 362.2 424.3" style="enable-background:new 0 0 362.2 424.3;" xml:space="preserve">
<style type="text/css">
	.st0{fill:#FFFFFF;}
	.st1{fill:#2199D7;}
	.st2{fill:#2199D7;stroke:#2199D7;stroke-width:30;stroke-miterlimit:10;}
	.st3{fill:#66A7DD;}
	.st4{fill:#66A5DB;}
	.st5{opacity:0.19;fill:#4070B6;}
	.st6{fill:#1776B7;}
	.st7{fill:#636363;}
	.st8{fill:#F6F6F9;}
</style>
<g id="XMLID_45_">
	<path id="XMLID_46_" class="st0" d="M31.9,366.1c5.8,0,10.3,1.5,13.4,4.4c3.1,3,4.7,7.5,4.7,13.5c0,3.2-0.4,6-1.1,8.4
		c-0.7,2.4-1.8,4.5-3.3,6.2c-1.5,1.7-3.4,3-5.7,3.8c-2.3,0.9-5,1.3-8.1,1.3H18.9v-37.7H31.9z M32.3,399.6c0.6,0,1.3,0,2.1-0.1
		c0.8-0.1,1.7-0.3,2.7-0.6c1-0.3,1.9-0.8,2.8-1.5c0.9-0.6,1.8-1.5,2.5-2.6c0.7-1.1,1.3-2.5,1.8-4.1c0.5-1.6,0.7-3.6,0.7-5.9
		c0-2.3-0.2-4.3-0.7-6c-0.4-1.8-1.2-3.3-2.2-4.5c-1-1.2-2.3-2.2-3.9-2.9c-1.6-0.7-3.5-1-5.9-1h-8.5v29.3H32.3z"/>
	<path id="XMLID_49_" class="st0" d="M54,384.5c0.6-1.7,1.4-3.3,2.5-4.5c1.1-1.3,2.5-2.3,4.2-3c1.7-0.7,3.6-1.1,5.7-1.1
		c2.2,0,4.1,0.4,5.7,1.1s3,1.8,4.1,3c1.1,1.3,2,2.8,2.5,4.5s0.8,3.6,0.8,5.6s-0.3,3.9-0.8,5.6s-1.4,3.2-2.5,4.5
		c-1.1,1.3-2.5,2.3-4.1,3c-1.6,0.7-3.5,1.1-5.7,1.1c-2.1,0-4-0.4-5.7-1.1c-1.7-0.7-3-1.7-4.2-3c-1.1-1.3-2-2.8-2.5-4.5
		c-0.6-1.7-0.8-3.6-0.8-5.6S53.4,386.3,54,384.5z M58.6,394.6c0.4,1.3,1,2.4,1.8,3.2c0.8,0.9,1.7,1.5,2.7,2c1,0.5,2.1,0.7,3.3,0.7
		s2.3-0.2,3.3-0.7c1-0.5,1.9-1.1,2.7-2c0.8-0.9,1.4-1.9,1.8-3.2c0.4-1.3,0.7-2.8,0.7-4.4c0-1.7-0.2-3.1-0.7-4.4
		c-0.4-1.3-1-2.4-1.8-3.2c-0.8-0.9-1.7-1.5-2.7-2c-1-0.5-2.1-0.7-3.3-0.7s-2.3,0.2-3.3,0.7c-1,0.5-1.9,1.1-2.7,2
		c-0.8,0.9-1.4,2-1.8,3.2s-0.7,2.8-0.7,4.4C57.9,391.8,58.1,393.3,58.6,394.6z"/>
	<path id="XMLID_52_" class="st0" d="M100.5,381.2c-1.1-1-2.6-1.4-4.5-1.4c-1.6,0-3,0.3-4.1,0.9c-1.1,0.6-2,1.4-2.6,2.4
		c-0.7,1-1.1,2.1-1.4,3.4c-0.3,1.3-0.4,2.6-0.4,4c0,1.3,0.1,2.5,0.4,3.7c0.3,1.2,0.8,2.3,1.4,3.2c0.6,0.9,1.5,1.7,2.5,2.2
		c1,0.6,2.2,0.8,3.6,0.8c2.2,0,4-0.6,5.2-1.7c1.2-1.2,2-2.8,2.3-4.9h4.6c-0.5,3.4-1.8,6-3.8,7.8c-2,1.8-4.8,2.7-8.3,2.7
		c-2.1,0-3.9-0.3-5.5-1c-1.6-0.7-2.9-1.6-4-2.9c-1.1-1.2-1.9-2.7-2.4-4.4c-0.5-1.7-0.8-3.6-0.8-5.6s0.3-4,0.8-5.7
		c0.5-1.8,1.3-3.3,2.4-4.6c1.1-1.3,2.4-2.4,4-3.1c1.6-0.8,3.5-1.1,5.7-1.1c1.5,0,3,0.2,4.4,0.6s2.6,0.9,3.6,1.7
		c1,0.8,1.9,1.8,2.6,2.9s1.1,2.6,1.3,4.2h-4.6C102.4,383.5,101.7,382.2,100.5,381.2z"/>
	<path id="XMLID_54_" class="st0" d="M123.5,376.5v4h-5.4v17c0,0.5,0,1,0.1,1.3c0.1,0.3,0.3,0.6,0.5,0.7c0.2,0.2,0.6,0.3,1,0.3
		c0.4,0.1,1,0.1,1.7,0.1h2.1v4h-3.4c-1.2,0-2.2-0.1-3-0.2c-0.8-0.2-1.5-0.4-2-0.9c-0.5-0.4-0.9-1-1.1-1.8c-0.2-0.8-0.4-1.8-0.4-3.1
		v-17.4h-4.6v-4h4.6v-8.2h4.5v8.2H123.5z"/>
	<path id="XMLID_56_" class="st0" d="M127.1,384.5c0.6-1.7,1.4-3.3,2.5-4.5c1.1-1.3,2.5-2.3,4.2-3c1.7-0.7,3.6-1.1,5.7-1.1
		c2.2,0,4.1,0.4,5.7,1.1s3,1.8,4.1,3c1.1,1.3,2,2.8,2.5,4.5s0.8,3.6,0.8,5.6s-0.3,3.9-0.8,5.6s-1.4,3.2-2.5,4.5
		c-1.1,1.3-2.5,2.3-4.1,3c-1.6,0.7-3.5,1.1-5.7,1.1c-2.1,0-4-0.4-5.7-1.1c-1.7-0.7-3-1.7-4.2-3c-1.1-1.3-2-2.8-2.5-4.5
		c-0.6-1.7-0.8-3.6-0.8-5.6S126.5,386.3,127.1,384.5z M131.7,394.6c0.4,1.3,1,2.4,1.8,3.2c0.8,0.9,1.7,1.5,2.7,2
		c1,0.5,2.1,0.7,3.3,0.7s2.3-0.2,3.3-0.7c1-0.5,1.9-1.1,2.7-2c0.8-0.9,1.4-1.9,1.8-3.2c0.4-1.3,0.7-2.8,0.7-4.4
		c0-1.7-0.2-3.1-0.7-4.4c-0.4-1.3-1-2.4-1.8-3.2c-0.8-0.9-1.7-1.5-2.7-2c-1-0.5-2.1-0.7-3.3-0.7s-2.3,0.2-3.3,0.7
		c-1,0.5-1.9,1.1-2.7,2c-0.8,0.9-1.4,2-1.8,3.2s-0.7,2.8-0.7,4.4C131,391.8,131.2,393.3,131.7,394.6z"/>
	<path id="XMLID_59_" class="st0" d="M161.4,376.5v5.8h0.1c1.1-2.2,2.4-3.9,4-4.9c1.6-1.1,3.6-1.5,6-1.5v4.8c-1.8,0-3.3,0.2-4.6,0.7
		c-1.3,0.5-2.3,1.2-3.1,2.2c-0.8,1-1.3,2.1-1.7,3.5c-0.4,1.4-0.5,2.9-0.5,4.7v12.1h-4.5v-27.3H161.4z"/>
	<path id="XMLID_61_" class="st0" d="M200.9,366.1v4.2h-21v12h19.6v4.2h-19.6v13h21.2v4.2h-26.2v-37.7H200.9z"/>
	<path id="XMLID_63_" class="st0" d="M209.9,376.5v4.3h0.1c1.9-3.3,4.8-5,8.9-5c1.8,0,3.3,0.2,4.5,0.7c1.2,0.5,2.2,1.2,2.9,2.1
		c0.7,0.9,1.3,1.9,1.6,3.1c0.3,1.2,0.4,2.6,0.4,4v18h-4.5v-18.5c0-1.7-0.5-3-1.5-4c-1-1-2.3-1.5-4.1-1.5c-1.4,0-2.6,0.2-3.6,0.6
		c-1,0.4-1.8,1-2.5,1.8c-0.7,0.8-1.2,1.7-1.5,2.7c-0.3,1-0.5,2.2-0.5,3.4v15.4h-4.5v-27.3H209.9z"/>
	<path id="XMLID_65_" class="st0" d="M257.9,371.4c-1.9-1.3-4.2-2-6.8-2c-2.3,0-4.2,0.4-5.8,1.3c-1.6,0.8-2.9,2-4,3.4
		c-1,1.4-1.8,3.1-2.3,4.9c-0.5,1.8-0.7,3.7-0.7,5.7c0,2.1,0.2,4.2,0.7,6.1c0.5,1.9,1.3,3.6,2.3,5c1,1.4,2.4,2.6,4,3.4
		c1.6,0.8,3.6,1.3,5.8,1.3c1.7,0,3.1-0.3,4.4-0.8c1.3-0.5,2.4-1.3,3.3-2.3c0.9-1,1.7-2.1,2.2-3.5c0.5-1.3,0.8-2.8,1-4.3h5
		c-0.5,4.8-2.1,8.5-4.9,11.1c-2.8,2.6-6.6,4-11.4,4c-2.9,0-5.5-0.5-7.7-1.5s-4-2.4-5.4-4.1c-1.4-1.8-2.5-3.8-3.2-6.2
		c-0.7-2.4-1.1-5-1.1-7.7c0-2.7,0.4-5.3,1.2-7.7c0.8-2.4,1.9-4.5,3.4-6.3s3.4-3.2,5.6-4.3c2.2-1,4.8-1.6,7.7-1.6
		c2,0,3.8,0.3,5.6,0.8c1.8,0.5,3.3,1.3,4.7,2.3c1.4,1,2.5,2.3,3.4,3.8c0.9,1.5,1.5,3.3,1.8,5.3h-5
		C261,374.8,259.8,372.8,257.9,371.4z"/>
	<path id="XMLID_67_" class="st0" d="M295.9,403.7c-0.8,0.5-1.8,0.7-3.2,0.7c-1.2,0-2.1-0.3-2.8-1c-0.7-0.7-1-1.7-1-3.2
		c-1.2,1.5-2.7,2.5-4.3,3.2c-1.6,0.7-3.4,1-5.3,1c-1.2,0-2.4-0.1-3.5-0.4c-1.1-0.3-2.1-0.7-2.9-1.3c-0.8-0.6-1.5-1.4-1.9-2.4
		c-0.5-1-0.7-2.1-0.7-3.5c0-1.5,0.3-2.8,0.8-3.8c0.5-1,1.2-1.8,2.1-2.4c0.9-0.6,1.8-1.1,3-1.4c1.1-0.3,2.2-0.6,3.4-0.8
		c1.2-0.2,2.4-0.4,3.5-0.6c1.1-0.1,2.1-0.3,2.9-0.5c0.8-0.2,1.5-0.6,2-1c0.5-0.4,0.7-1.1,0.7-1.9c0-1-0.2-1.8-0.6-2.4
		c-0.4-0.6-0.8-1.1-1.4-1.4c-0.6-0.3-1.2-0.5-2-0.6c-0.7-0.1-1.4-0.2-2.1-0.2c-1.9,0-3.5,0.4-4.8,1.1s-2,2.1-2.1,4.1h-4.5
		c0.1-1.7,0.4-3.1,1.1-4.3s1.5-2.1,2.5-2.8s2.3-1.2,3.6-1.6c1.4-0.3,2.8-0.5,4.4-0.5c1.2,0,2.5,0.1,3.7,0.3s2.3,0.5,3.3,1.1
		c1,0.5,1.8,1.3,2.4,2.3c0.6,1,0.9,2.3,0.9,3.8v14c0,1.1,0.1,1.8,0.2,2.3c0.1,0.5,0.5,0.7,1.2,0.7c0.4,0,0.8-0.1,1.4-0.2V403.7z
		 M288.6,389.7c-0.6,0.4-1.3,0.7-2.2,0.9c-0.9,0.2-1.9,0.4-2.9,0.5c-1,0.1-2,0.3-3,0.4s-1.9,0.4-2.7,0.8c-0.8,0.3-1.5,0.8-2,1.5
		s-0.8,1.5-0.8,2.7c0,0.7,0.1,1.4,0.4,1.9c0.3,0.5,0.7,0.9,1.2,1.2s1,0.5,1.7,0.7c0.6,0.1,1.3,0.2,2,0.2c1.5,0,2.7-0.2,3.8-0.6
		c1.1-0.4,1.9-0.9,2.6-1.5c0.7-0.6,1.2-1.3,1.5-2c0.3-0.7,0.5-1.4,0.5-2V389.7z"/>
	<path id="XMLID_70_" class="st0" d="M302.8,397.7c0.4,0.7,1,1.2,1.7,1.6c0.7,0.4,1.5,0.7,2.3,0.9c0.9,0.2,1.8,0.3,2.7,0.3
		c0.7,0,1.4-0.1,2.2-0.2s1.5-0.3,2.1-0.6c0.7-0.3,1.2-0.7,1.6-1.2c0.4-0.5,0.6-1.2,0.6-2.1c0-1.2-0.4-2-1.3-2.6
		c-0.9-0.6-2-1.1-3.3-1.5c-1.3-0.4-2.8-0.7-4.3-1c-1.5-0.3-3-0.7-4.3-1.3c-1.3-0.5-2.4-1.3-3.3-2.3c-0.9-1-1.3-2.4-1.3-4.1
		c0-1.4,0.3-2.6,0.9-3.5c0.6-1,1.4-1.8,2.4-2.4c1-0.6,2.1-1.1,3.3-1.4c1.2-0.3,2.4-0.4,3.6-0.4c1.5,0,3,0.1,4.3,0.4
		c1.3,0.3,2.5,0.7,3.5,1.4c1,0.7,1.8,1.5,2.4,2.6c0.6,1.1,1,2.5,1.1,4.1h-4.5c-0.1-0.9-0.3-1.6-0.7-2.2c-0.4-0.6-0.9-1-1.5-1.4
		c-0.6-0.4-1.3-0.6-2-0.8s-1.5-0.2-2.2-0.2c-0.7,0-1.3,0.1-2,0.2s-1.3,0.3-1.9,0.6c-0.6,0.3-1,0.6-1.4,1.1c-0.4,0.4-0.5,1-0.5,1.7
		c0,0.8,0.3,1.4,0.8,1.9c0.5,0.5,1.2,0.9,2.1,1.3c0.8,0.3,1.8,0.6,2.9,0.8c1.1,0.2,2.1,0.5,3.2,0.7c1.1,0.2,2.2,0.5,3.3,0.9
		c1.1,0.4,2,0.8,2.9,1.4c0.8,0.6,1.5,1.3,2,2.2c0.5,0.9,0.8,2,0.8,3.3c0,1.7-0.3,3-1,4.1s-1.6,2-2.7,2.6c-1.1,0.7-2.4,1.1-3.8,1.4
		c-1.4,0.3-2.8,0.4-4.1,0.4c-1.5,0-3-0.2-4.3-0.5c-1.4-0.3-2.6-0.8-3.6-1.6s-1.9-1.7-2.5-2.9c-0.6-1.2-1-2.6-1.1-4.3h4.5
		C302.1,396.2,302.4,397,302.8,397.7z"/>
	<path id="XMLID_72_" class="st0" d="M349.2,403.7c-0.8,0.5-1.8,0.7-3.2,0.7c-1.2,0-2.1-0.3-2.8-1c-0.7-0.7-1-1.7-1-3.2
		c-1.2,1.5-2.7,2.5-4.3,3.2c-1.6,0.7-3.4,1-5.3,1c-1.2,0-2.4-0.1-3.5-0.4c-1.1-0.3-2.1-0.7-2.9-1.3c-0.8-0.6-1.5-1.4-1.9-2.4
		c-0.5-1-0.7-2.1-0.7-3.5c0-1.5,0.3-2.8,0.8-3.8c0.5-1,1.2-1.8,2.1-2.4c0.9-0.6,1.8-1.1,3-1.4c1.1-0.3,2.2-0.6,3.4-0.8
		c1.2-0.2,2.4-0.4,3.5-0.6c1.1-0.1,2.1-0.3,2.9-0.5c0.8-0.2,1.5-0.6,2-1c0.5-0.4,0.7-1.1,0.7-1.9c0-1-0.2-1.8-0.6-2.4
		c-0.4-0.6-0.8-1.1-1.4-1.4c-0.6-0.3-1.2-0.5-2-0.6c-0.7-0.1-1.4-0.2-2.1-0.2c-1.9,0-3.5,0.4-4.8,1.1s-2,2.1-2.1,4.1h-4.5
		c0.1-1.7,0.4-3.1,1.1-4.3s1.5-2.1,2.5-2.8s2.3-1.2,3.6-1.6c1.4-0.3,2.8-0.5,4.4-0.5c1.2,0,2.5,0.1,3.7,0.3s2.3,0.5,3.3,1.1
		c1,0.5,1.8,1.3,2.4,2.3c0.6,1,0.9,2.3,0.9,3.8v14c0,1.1,0.1,1.8,0.2,2.3c0.1,0.5,0.5,0.7,1.2,0.7c0.4,0,0.8-0.1,1.4-0.2V403.7z
		 M341.9,389.7c-0.6,0.4-1.3,0.7-2.2,0.9c-0.9,0.2-1.9,0.4-2.9,0.5c-1,0.1-2,0.3-3,0.4s-1.9,0.4-2.7,0.8c-0.8,0.3-1.5,0.8-2,1.5
		s-0.8,1.5-0.8,2.7c0,0.7,0.1,1.4,0.4,1.9c0.3,0.5,0.7,0.9,1.2,1.2s1,0.5,1.7,0.7c0.6,0.1,1.3,0.2,2,0.2c1.5,0,2.7-0.2,3.8-0.6
		c1.1-0.4,1.9-0.9,2.6-1.5c0.7-0.6,1.2-1.3,1.5-2c0.3-0.7,0.5-1.4,0.5-2V389.7z"/>
</g>
<path id="XMLID_512_" class="st0" d="M298.8,315.1H65.1c-21.3,0-38.7-17.4-38.7-38.7V56.8c0-21.3,17.4-38.7,38.7-38.7h233.7
	c21.3,0,38.7,17.4,38.7,38.7v219.6C337.5,297.7,320.1,315.1,298.8,315.1z"/>
<g id="XMLID_505_">
	<path id="XMLID_511_" class="st1" d="M114.2,261.9c-6.3,0-11.7-2-15.9-6c-7.3-6.8-9.2-17.6-9.7-23.5c-0.8-9.1,0-35.7,0-36.8
		l3.8,0.2c0,0.3-0.8,27.3,0,36.2c0.5,5.1,2.1,14.6,8.3,20.4c4.5,4.2,10.6,5.8,18.1,4.7c16.2-2.4,23.9-12.7,32-23.6
		c9.2-12.3,18.8-25.1,40.7-26.7c6.9-0.5,12.7-0.7,17.3-0.8c22.8-0.6,23.7-0.6,37.9-39.2l3.5,1.8c-14.8,40.3-17,41.3-41.3,41.9
		c-4.9,0.1-10.4,0.3-17.2,0.8c-20.4,1.5-29,13-38.1,25.2c-8.3,11.1-16.8,22.5-34.4,25.1C117.5,261.8,115.8,261.9,114.2,261.9z"/>
</g>
<g id="XMLID_42_">
	<path id="XMLID_43_" class="st2" d="M98.6,109.9v32.7h31.9v12.7H98.6v32.8h-13v-32.8H53.7v-12.7h31.9v-32.7H98.6z"/>
</g>
<g id="XMLID_502_">
	<path id="XMLID_503_" class="st0" d="M182.5,210.9c-0.1,0-0.3-0.1-0.3-0.2c-0.1-0.2,0.1-0.3,0.2-0.4c0.2-0.1,6.1-1.6,22.8-1.5
		c0.2,0,0.3,0.1,0.3,0.3c0,0.2-0.2,0.3-0.3,0.3h0c-0.4,0-0.8,0-1.2,0C188.3,209.5,182.7,210.9,182.5,210.9
		C182.6,210.9,182.5,210.9,182.5,210.9z"/>
</g>
<g id="XMLID_500_">
	<path id="XMLID_501_" class="st0" d="M209.2,209.2c-0.2,0-0.3-0.2-0.4-0.3c0-0.2,0.1-0.4,0.3-0.4l3.9-0.1c0,0,0,0,0,0
		c0.2,0,0.3,0.2,0.4,0.3c0,0.2-0.1,0.4-0.3,0.4L209.2,209.2C209.2,209.2,209.2,209.2,209.2,209.2z"/>
</g>
<g id="XMLID_498_">
	<path id="XMLID_499_" class="st0" d="M115.7,260.4c-18,0-23.1-14.3-23.2-14.4c-0.1-0.2,0-0.3,0.2-0.4c0.2,0,0.4,0,0.4,0.2
		c0.1,0.2,5.5,15.2,24.8,13.9c0.2,0,0.4,0.1,0.4,0.3c0,0.2-0.1,0.3-0.3,0.3C117.3,260.3,116.5,260.4,115.7,260.4z"/>
</g>
<g id="Design_4_">
	<g id="XMLID_457_">
		<path id="XMLID_554_" class="st3" d="M307.1,90.3c0.3,0.5,0.6,1,0.8,1.6C307.6,91.4,307.4,90.9,307.1,90.3z"/>
		<path id="XMLID_553_" class="st3" d="M308.5,93.1c0.3,0.5,0.5,1.1,0.7,1.6C309,94.2,308.8,93.6,308.5,93.1z"/>
		<path id="XMLID_552_" class="st3" d="M311,98.8c0.2,0.6,0.4,1.1,0.6,1.7C311.4,99.9,311.2,99.4,311,98.8z"/>
		<path id="XMLID_551_" class="st3" d="M312,101.8c0.2,0.6,0.3,1.1,0.5,1.7C312.3,102.9,312.2,102.3,312,101.8z"/>
		<path id="XMLID_550_" class="st3" d="M305.5,87.7c0.3,0.5,0.6,1,0.9,1.5C306.1,88.7,305.8,88.2,305.5,87.7z"/>
		<path id="XMLID_549_" class="st3" d="M309.8,95.9c0.2,0.5,0.5,1.1,0.7,1.6C310.3,97,310,96.5,309.8,95.9z"/>
		<path id="XMLID_548_" class="st3" d="M312.9,104.8c0.2,0.6,0.3,1.2,0.4,1.8C313.1,106,313,105.4,312.9,104.8z"/>
		<path id="XMLID_547_" class="st3" d="M298.1,77.9c0.4,0.4,0.8,0.9,1.2,1.3C298.9,78.8,298.5,78.4,298.1,77.9z"/>
		<path id="XMLID_532_" class="st3" d="M295.9,75.7c0.4,0.4,0.8,0.8,1.2,1.2C296.8,76.6,296.4,76.1,295.9,75.7z"/>
		<path id="XMLID_530_" class="st3" d="M300.1,80.2c0.4,0.4,0.7,0.9,1.1,1.4C300.8,81.1,300.5,80.7,300.1,80.2z"/>
		<path id="XMLID_528_" class="st3" d="M302,82.6c0.4,0.5,0.7,0.9,1,1.4C302.7,83.6,302.4,83.1,302,82.6z"/>
		<path id="XMLID_526_" class="st3" d="M303.8,85.1c0.3,0.5,0.7,1,1,1.5C304.5,86.1,304.2,85.6,303.8,85.1z"/>
		<path id="XMLID_518_" class="st3" d="M314.8,117.4c0.1,1.1,0.1,2.2,0.1,3.3C314.9,119.6,314.9,118.5,314.8,117.4z"/>
		<path id="XMLID_495_" class="st4" d="M225.1,145.7c-5.9-6.5-9.6-15.1-9.6-24.5c0-20.1,16.3-36.4,36.4-36.4
			c9.5,0,18.1,3.6,24.5,9.6l19-19c-11.3-10.8-26.6-17.5-43.5-17.5c-34.7,0-62.9,28.2-62.9,62.9c0,11.5,3.1,22.3,8.5,31.5l-11.1,32.2
			l0.1-0.2L225.1,145.7z"/>
		<path id="XMLID_494_" class="st3" d="M314.6,114.2c0.1,0.7,0.1,1.4,0.2,2.2C314.7,115.7,314.6,114.9,314.6,114.2z"/>
		<path id="XMLID_493_" class="st3" d="M313.6,107.9c0.1,0.6,0.2,1.2,0.3,1.8C313.8,109.1,313.7,108.5,313.6,107.9z"/>
		<path id="XMLID_491_" class="st3" d="M314.1,111c0.1,0.6,0.2,1.3,0.3,2C314.3,112.3,314.2,111.7,314.1,111z"/>
		<path id="XMLID_489_" class="st5" d="M314.7,116.4c0,0.4,0.1,0.7,0.1,1.1C314.8,117.1,314.8,116.7,314.7,116.4z"/>
		<path id="XMLID_488_" class="st5" d="M304.8,86.6c0.2,0.4,0.5,0.7,0.7,1.1C305.3,87.3,305,86.9,304.8,86.6z"/>
		<path id="XMLID_486_" class="st5" d="M303.1,84c0.3,0.4,0.5,0.7,0.8,1.1C303.6,84.7,303.3,84.4,303.1,84z"/>
		<path id="XMLID_484_" class="st5" d="M301.2,81.6c0.3,0.3,0.5,0.7,0.8,1C301.8,82.3,301.5,81.9,301.2,81.6z"/>
		<path id="XMLID_481_" class="st5" d="M295.5,75.3L295.5,75.3c0.1,0.1,0.3,0.3,0.4,0.4C295.8,75.6,295.7,75.5,295.5,75.3z"/>
		<path id="XMLID_478_" class="st5" d="M299.2,79.2c0.3,0.3,0.6,0.7,0.9,1C299.8,79.9,299.5,79.6,299.2,79.2z"/>
		<path id="XMLID_477_" class="st5" d="M297.2,77c0.3,0.3,0.6,0.6,0.9,1C297.8,77.6,297.5,77.3,297.2,77z"/>
		<path id="XMLID_476_" class="st5" d="M306.4,89.2c0.2,0.4,0.4,0.8,0.7,1.2C306.9,90,306.6,89.6,306.4,89.2z"/>
		<path id="XMLID_475_" class="st5" d="M313.9,109.7c0.1,0.4,0.2,0.9,0.2,1.3C314.1,110.6,314,110.2,313.9,109.7z"/>
		<path id="XMLID_474_" class="st5" d="M311.6,100.5c0.1,0.4,0.3,0.8,0.4,1.3C311.8,101.3,311.7,100.9,311.6,100.5z"/>
		<path id="XMLID_473_" class="st5" d="M309.3,94.7c0.2,0.4,0.4,0.8,0.5,1.2C309.6,95.5,309.4,95.1,309.3,94.7z"/>
		<path id="XMLID_472_" class="st5" d="M310.5,97.6c0.2,0.4,0.3,0.8,0.5,1.2C310.8,98.4,310.6,98,310.5,97.6z"/>
		<path id="XMLID_471_" class="st5" d="M312.5,103.5c0.1,0.4,0.3,0.9,0.4,1.3C312.7,104.4,312.6,103.9,312.5,103.5z"/>
		<path id="XMLID_470_" class="st5" d="M313.3,106.6c0.1,0.4,0.2,0.9,0.3,1.3C313.5,107.4,313.4,107,313.3,106.6z"/>
		<path id="XMLID_468_" class="st5" d="M314.4,113c0.1,0.4,0.1,0.8,0.2,1.2C314.5,113.8,314.5,113.4,314.4,113z"/>
		<path id="XMLID_459_" class="st5" d="M307.9,91.9c0.2,0.4,0.4,0.8,0.6,1.2C308.3,92.7,308.1,92.3,307.9,91.9z"/>
		<path id="XMLID_458_" class="st6" d="M314.8,117.4c0-0.4-0.1-0.7-0.1-1.1c0-0.7-0.1-1.5-0.2-2.2c0-0.4-0.1-0.8-0.2-1.2
			c-0.1-0.7-0.2-1.3-0.3-2c-0.1-0.4-0.2-0.9-0.2-1.3c-0.1-0.6-0.2-1.2-0.3-1.8c-0.1-0.4-0.2-0.9-0.3-1.3c-0.1-0.6-0.3-1.2-0.4-1.8
			c-0.1-0.4-0.2-0.9-0.4-1.3c-0.2-0.6-0.3-1.2-0.5-1.7c-0.1-0.4-0.3-0.8-0.4-1.3c-0.2-0.6-0.4-1.1-0.6-1.7c-0.2-0.4-0.3-0.8-0.5-1.2
			c-0.2-0.6-0.4-1.1-0.7-1.6c-0.2-0.4-0.4-0.8-0.5-1.2c-0.2-0.5-0.5-1.1-0.7-1.6c-0.2-0.4-0.4-0.8-0.6-1.2c-0.3-0.5-0.5-1-0.8-1.6
			c-0.2-0.4-0.4-0.8-0.7-1.2c-0.3-0.5-0.6-1-0.9-1.5c-0.2-0.4-0.5-0.7-0.7-1.1c-0.3-0.5-0.6-1-1-1.5c-0.2-0.4-0.5-0.7-0.8-1.1
			c-0.3-0.5-0.7-0.9-1-1.4c-0.3-0.4-0.5-0.7-0.8-1c-0.4-0.5-0.7-0.9-1.1-1.4c-0.3-0.3-0.6-0.7-0.9-1c-0.4-0.4-0.8-0.9-1.2-1.3
			c-0.3-0.3-0.6-0.6-0.9-1c-0.4-0.4-0.8-0.8-1.2-1.2c-0.1-0.1-0.3-0.3-0.4-0.4l-19,19c7.3,6.7,11.9,16.2,11.9,26.9
			c0,20.1-16.3,36.4-36.4,36.4c-10.6,0-20.2-4.6-26.9-11.9l-38.6,38.6l-0.1,0.2l35.6-8.4c8.9,4.8,19.1,7.5,29.9,7.5
			c34.7,0,62.9-28.2,62.9-62.9C314.9,119.6,314.9,118.5,314.8,117.4z"/>
	</g>
</g>
<path id="XMLID_456_" class="st0" d="M298.7,120.2c0,26.7-21.7,48.4-48.4,48.4c-26.7,0-48.4-21.7-48.4-48.4
	c0-26.7,21.7-48.4,48.4-48.4C277,71.8,298.7,93.5,298.7,120.2z"/>
<path id="XMLID_455_" class="st7" d="M289.6,124c0,19.6-15.9,35.6-35.6,35.6c-19.6,0-35.6-15.9-35.6-35.6
	c0-19.6,15.9-35.6,35.6-35.6C273.7,88.4,289.6,104.3,289.6,124z"/>
<path id="XMLID_454_" class="st8" d="M285.9,120.2c0,19.6-15.9,35.6-35.6,35.6c-19.6,0-35.5-15.9-35.5-35.6
	c0-19.6,15.9-35.6,35.5-35.6C269.9,84.7,285.9,100.6,285.9,120.2z"/>
<path id="XMLID_453_" class="st0" d="M220.2,120.1c0,0-0.6-34.7,39.1-31.5C259.5,88.4,228.6,94.2,220.2,120.1z"/>
</svg>
